<svg width="32" height="32" viewBox="0 0 32 32" fill="none" xmlns="http://www.w3.org/2000/svg">
<path d="M24.4001 7.61333C24.2767 7.48973 24.1302 7.39167 23.9689 7.32476C23.8076 7.25785 23.6347 7.22341 23.4601 7.22341C23.2854 7.22341 23.1125 7.25785 22.9512 7.32476C22.7899 7.39167 22.6434 7.48973 22.5201 7.61333L16.0001 14.12L9.48005 7.6C9.35661 7.47656 9.21006 7.37864 9.04878 7.31183C8.88749 7.24502 8.71463 7.21064 8.54005 7.21064C8.36548 7.21064 8.19261 7.24502 8.03133 7.31183C7.87004 7.37864 7.7235 7.47656 7.60005 7.6C7.47661 7.72344 7.37869 7.86999 7.31188 8.03128C7.24508 8.19256 7.21069 8.36543 7.21069 8.54C7.21069 8.71458 7.24508 8.88744 7.31188 9.04873C7.37869 9.21001 7.47661 9.35656 7.60005 9.48L14.1201 16L7.60005 22.52C7.47661 22.6434 7.37869 22.79 7.31188 22.9513C7.24508 23.1126 7.21069 23.2854 7.21069 23.46C7.21069 23.6346 7.24508 23.8074 7.31188 23.9687C7.37869 24.13 7.47661 24.2766 7.60005 24.4C7.7235 24.5234 7.87004 24.6214 8.03133 24.6882C8.19261 24.755 8.36548 24.7894 8.54005 24.7894C8.71463 24.7894 8.88749 24.755 9.04878 24.6882C9.21006 24.6214 9.35661 24.5234 9.48005 24.4L16.0001 17.88L22.5201 24.4C22.6435 24.5234 22.79 24.6214 22.9513 24.6882C23.1126 24.755 23.2855 24.7894 23.4601 24.7894C23.6346 24.7894 23.8075 24.755 23.9688 24.6882C24.1301 24.6214 24.2766 24.5234 24.4001 24.4C24.5235 24.2766 24.6214 24.13 24.6882 23.9687C24.755 23.8074 24.7894 23.6346 24.7894 23.46C24.7894 23.2854 24.755 23.1126 24.6882 22.9513C24.6214 22.79 24.5235 22.6434 24.4001 22.52L17.8801 16L24.4001 9.48C24.9067 8.97333 24.9067 8.12 24.4001 7.61333Z" fill="#8E92C2"/>
</svg>
