<svg width="25" height="24" viewBox="0 0 25 24" fill="none" xmlns="http://www.w3.org/2000/svg">
<path d="M8.71 12L7.38 12.89V11.11L8.71 12ZM11.97 9.82V7.34L7.81 10.12L9.66 11.36L11.97 9.82ZM17.2 10.12L13.03 7.34V9.82L15.34 11.36L17.2 10.12ZM7.81 13.88L11.97 16.66V14.18L9.66 12.64L7.81 13.88ZM13.03 14.18V16.66L17.2 13.88L15.34 12.64L13.03 14.18ZM12.5 10.74L10.62 12L12.5 13.26L14.38 12L12.5 10.74ZM22.5 12C22.5 17.5 18 22 12.5 22C7 22 2.5 17.5 2.5 12C2.5 6.5 7 2 12.5 2C18 2 22.5 6.5 22.5 12ZM18.68 10.12V10.05L18.67 10L18.66 9.95C18.65 9.94 18.65 9.93 18.64 9.91L18.63 9.89L18.61 9.85L18.6 9.83L18.58 9.8L18.56 9.77L18.53 9.74L18.5 9.72V9.7L18.46 9.68L18.45 9.67L12.8 5.91C12.7128 5.85127 12.6101 5.8199 12.505 5.8199C12.3999 5.8199 12.2972 5.85127 12.21 5.91L6.55 9.67V9.68L6.5 9.7V9.72L6.47 9.74L6.44 9.77L6.43 9.8L6.4 9.83L6.39 9.85L6.37 9.89L6.36 9.91L6.34 9.95V10H6.33L6.32 10.05V13.95L6.33 14H6.34V14.05C6.35 14.06 6.35 14.07 6.36 14.09L6.37 14.11L6.39 14.15L6.4 14.17L6.42 14.2L6.44 14.23L6.47 14.26L6.5 14.28V14.3L6.54 14.32L6.55 14.33L12.21 18.1C12.29 18.16 12.4 18.18 12.5 18.18C12.6 18.18 12.71 18.15 12.8 18.1L18.45 14.33L18.46 14.32L18.5 14.3V14.28L18.53 14.26L18.56 14.23L18.58 14.2L18.6 14.17L18.61 14.15L18.63 14.11L18.64 14.09L18.66 14.05V14H18.67L18.68 13.95V10.12ZM17.62 12.89V11.11L16.29 12L17.62 12.89Z" fill="white"/>
</svg>
