<svg width="25" height="24" viewBox="0 0 25 24" fill="none" xmlns="http://www.w3.org/2000/svg">
<path d="M16.9267 14C17.0067 13.34 17.0667 12.68 17.0667 12C17.0667 11.32 17.0067 10.66 16.9267 10H20.3067C20.4667 10.64 20.5667 11.31 20.5667 12C20.5667 12.69 20.4667 13.36 20.3067 14M15.1567 19.56C15.7567 18.45 16.2167 17.25 16.5367 16H19.4867C18.5178 17.6683 16.9808 18.932 15.1567 19.56ZM14.9067 14H10.2267C10.1267 13.34 10.0667 12.68 10.0667 12C10.0667 11.32 10.1267 10.65 10.2267 10H14.9067C14.9967 10.65 15.0667 11.32 15.0667 12C15.0667 12.68 14.9967 13.34 14.9067 14ZM12.5667 19.96C11.7367 18.76 11.0667 17.43 10.6567 16H14.4767C14.0667 17.43 13.3967 18.76 12.5667 19.96ZM8.56665 8H5.64665C6.60551 6.32721 8.14145 5.06149 9.96665 4.44C9.36665 5.55 8.91665 6.75 8.56665 8ZM5.64665 16H8.56665C8.91665 17.25 9.36665 18.45 9.96665 19.56C8.14527 18.9317 6.6115 17.6677 5.64665 16ZM4.82665 14C4.66665 13.36 4.56665 12.69 4.56665 12C4.56665 11.31 4.66665 10.64 4.82665 10H8.20665C8.12665 10.66 8.06665 11.32 8.06665 12C8.06665 12.68 8.12665 13.34 8.20665 14M12.5667 4.03C13.3967 5.23 14.0667 6.57 14.4767 8H10.6567C11.0667 6.57 11.7367 5.23 12.5667 4.03ZM19.4867 8H16.5367C16.2237 6.76146 15.7602 5.5659 15.1567 4.44C16.9967 5.07 18.5267 6.34 19.4867 8ZM12.5667 2C7.03665 2 2.56665 6.5 2.56665 12C2.56665 14.6522 3.62022 17.1957 5.49558 19.0711C6.42417 19.9997 7.52656 20.7362 8.73982 21.2388C9.95307 21.7413 11.2534 22 12.5667 22C15.2188 22 17.7624 20.9464 19.6377 19.0711C21.5131 17.1957 22.5667 14.6522 22.5667 12C22.5667 10.6868 22.308 9.38642 21.8054 8.17317C21.3029 6.95991 20.5663 5.85752 19.6377 4.92893C18.7091 4.00035 17.6067 3.26375 16.3935 2.7612C15.1802 2.25866 13.8799 2 12.5667 2Z" fill="#21C2E1"/>
</svg>
